<svg xmlns="http://www.w3.org/2000/svg" xmlns:xlink="http://www.w3.org/1999/xlink" width="800" zoomAndPan="magnify" viewBox="0 0 600 599.999999" height="800" preserveAspectRatio="xMidYMid meet" version="1.0"><defs><filter x="0%" y="0%" width="100%" height="100%" id="1c1244ead1"><feColorMatrix values="0 0 0 0 1 0 0 0 0 1 0 0 0 0 1 0 0 0 1 0" color-interpolation-filters="sRGB"/></filter><g/><mask id="264cc921e9"><g filter="url(#1c1244ead1)"><rect x="-60" width="720" fill="#000000" y="-60" height="719.999999" fill-opacity="0.25"/></g></mask><clipPath id="ab220fe8c7"><path d="M 0.078125 0.359375 L 357 0.359375 L 357 175.800781 L 0.078125 175.800781 Z M 0.078125 0.359375 " clip-rule="nonzero"/></clipPath><clipPath id="c75b907ecd"><rect x="0" width="358" y="0" height="176"/></clipPath><clipPath id="cf45aada67"><path d="M 300 214.273438 L 417 214.273438 L 417 291.523438 L 300 291.523438 Z M 300 214.273438 " clip-rule="nonzero"/></clipPath><mask id="70d2ff2c31"><g filter="url(#1c1244ead1)"><rect x="-60" width="720" fill="#000000" y="-60" height="719.999999" fill-opacity="0.25"/></g></mask><clipPath id="682abb2ec0"><rect x="0" width="389" y="0" height="100"/></clipPath></defs><g mask="url(#264cc921e9)"><g transform="matrix(1, 0, 0, 1, 76, 183)"><g clip-path="url(#c75b907ecd)"><g clip-path="url(#ab220fe8c7)"><path fill="#010200" d="M 87.929688 0.488281 L 268.609375 0.488281 C 316.96875 0.488281 356.171875 39.691406 356.171875 88.050781 C 356.171875 136.410156 316.96875 175.613281 268.609375 175.613281 L 87.929688 175.613281 C 39.570312 175.613281 0.367188 136.410156 0.367188 88.050781 C 0.367188 39.691406 39.570312 0.488281 87.929688 0.488281 Z M 87.929688 0.488281 " fill-opacity="1" fill-rule="nonzero"/></g><g fill="#ffffff" fill-opacity="1"><g transform="translate(39.231013, 122.117124)"><g><path d="M 28.171875 0.6875 C 20.785156 0.6875 14.773438 -0.914062 10.140625 -4.125 C 5.515625 -7.332031 3.203125 -11.882812 3.203125 -17.78125 C 3.203125 -18.363281 3.269531 -19.238281 3.40625 -20.40625 L 20.6875 -20.40625 C 20.5 -17.9375 21.082031 -15.988281 22.4375 -14.5625 C 23.800781 -13.144531 25.875 -12.4375 28.65625 -12.4375 C 31.1875 -12.4375 33.179688 -12.984375 34.640625 -14.078125 C 36.097656 -15.179688 36.828125 -16.738281 36.828125 -18.75 C 36.828125 -20.820312 35.898438 -22.503906 34.046875 -23.796875 C 32.203125 -25.097656 29.335938 -26.554688 25.453125 -28.171875 C 21.691406 -29.722656 18.628906 -31.195312 16.265625 -32.59375 C 13.910156 -33.988281 11.859375 -35.882812 10.109375 -38.28125 C 8.359375 -40.675781 7.484375 -43.6875 7.484375 -47.3125 C 7.421875 -51.78125 8.519531 -55.664062 10.78125 -58.96875 C 13.050781 -62.269531 16.191406 -64.796875 20.203125 -66.546875 C 24.222656 -68.296875 28.820312 -69.171875 34 -69.171875 C 38.664062 -69.171875 42.8125 -68.441406 46.4375 -66.984375 C 50.0625 -65.523438 52.878906 -63.421875 54.890625 -60.671875 C 56.898438 -57.921875 57.90625 -54.664062 57.90625 -50.90625 C 57.90625 -49.9375 57.875 -49.222656 57.8125 -48.765625 L 40.125 -48.765625 C 40.1875 -49.023438 40.21875 -49.414062 40.21875 -49.9375 C 40.21875 -51.75 39.585938 -53.222656 38.328125 -54.359375 C 37.066406 -55.492188 35.332031 -56.0625 33.125 -56.0625 C 30.789062 -56.0625 28.894531 -55.492188 27.4375 -54.359375 C 25.988281 -53.222656 25.265625 -51.6875 25.265625 -49.75 C 25.265625 -47.800781 26.171875 -46.160156 27.984375 -44.828125 C 29.796875 -43.503906 32.613281 -41.96875 36.4375 -40.21875 C 40.257812 -38.46875 43.382812 -36.847656 45.8125 -35.359375 C 48.238281 -33.867188 50.328125 -31.878906 52.078125 -29.390625 C 53.828125 -26.898438 54.703125 -23.835938 54.703125 -20.203125 C 54.703125 -16.191406 53.628906 -12.597656 51.484375 -9.421875 C 49.347656 -6.242188 46.269531 -3.765625 42.25 -1.984375 C 38.238281 -0.203125 33.546875 0.6875 28.171875 0.6875 Z M 28.171875 0.6875 "/></g></g></g><g fill="#ffffff" fill-opacity="1"><g transform="translate(92.357353, 122.117124)"><g><path d="M 23.609375 -18.65625 C 23.546875 -18.332031 23.515625 -17.910156 23.515625 -17.390625 C 23.515625 -16.222656 23.851562 -15.378906 24.53125 -14.859375 C 25.207031 -14.347656 26.328125 -14.09375 27.890625 -14.09375 L 33.8125 -14.09375 L 31.28125 0 L 22.828125 0 C 11.953125 0 6.515625 -4.566406 6.515625 -13.703125 C 6.515625 -15.054688 6.675781 -16.769531 7 -18.84375 L 10.875 -40.421875 L 4.28125 -40.421875 L 6.703125 -54.21875 L 13.3125 -54.21875 L 15.640625 -67.421875 L 32.25 -67.421875 L 29.921875 -54.21875 L 40.8125 -54.21875 L 38.375 -40.421875 L 27.5 -40.421875 Z M 23.609375 -18.65625 "/></g></g></g><g fill="#ffffff" fill-opacity="1"><g transform="translate(124.50408, 122.117124)"><g><path d="M 64.125 -54.21875 L 54.609375 0 L 37.984375 0 L 39.25 -7.390625 C 37.113281 -4.992188 34.503906 -3.066406 31.421875 -1.609375 C 28.347656 -0.148438 25.0625 0.578125 21.5625 0.578125 C 16.125 0.578125 11.847656 -0.957031 8.734375 -4.03125 C 5.628906 -7.101562 4.078125 -11.394531 4.078125 -16.90625 C 4.078125 -18.976562 4.238281 -20.859375 4.5625 -22.546875 L 10.203125 -54.21875 L 26.71875 -54.21875 L 21.5625 -24.78125 C 21.375 -23.738281 21.28125 -22.734375 21.28125 -21.765625 C 21.28125 -19.046875 22.039062 -16.957031 23.5625 -15.5 C 25.082031 -14.039062 27.203125 -13.3125 29.921875 -13.3125 C 33.035156 -13.3125 35.675781 -14.234375 37.84375 -16.078125 C 40.007812 -17.921875 41.453125 -20.5625 42.171875 -24 L 47.515625 -54.21875 Z M 64.125 -54.21875 "/></g></g></g><g fill="#ffffff" fill-opacity="1"><g transform="translate(182.681061, 122.117124)"><g><path d="M 2.625 -27.203125 C 3.59375 -32.773438 5.5 -37.664062 8.34375 -41.875 C 11.195312 -46.082031 14.628906 -49.316406 18.640625 -51.578125 C 22.660156 -53.847656 26.90625 -54.984375 31.375 -54.984375 C 34.9375 -54.984375 38.0625 -54.238281 40.75 -52.75 C 43.4375 -51.257812 45.398438 -49.253906 46.640625 -46.734375 L 51.109375 -71.890625 L 67.71875 -71.890625 L 54.984375 0 L 38.375 0 L 39.734375 -7.765625 C 37.660156 -5.179688 35.066406 -3.109375 31.953125 -1.546875 C 28.847656 0.00390625 25.382812 0.78125 21.5625 0.78125 C 17.75 0.78125 14.367188 -0.09375 11.421875 -1.84375 C 8.472656 -3.59375 6.171875 -6.085938 4.515625 -9.328125 C 2.867188 -12.566406 2.046875 -16.351562 2.046875 -20.6875 C 2.046875 -22.695312 2.238281 -24.867188 2.625 -27.203125 Z M 43.234375 -27.109375 C 43.429688 -28.273438 43.53125 -29.34375 43.53125 -30.3125 C 43.53125 -33.488281 42.601562 -35.984375 40.75 -37.796875 C 38.90625 -39.609375 36.5625 -40.515625 33.71875 -40.515625 C 30.414062 -40.515625 27.398438 -39.332031 24.671875 -36.96875 C 21.953125 -34.601562 20.238281 -31.347656 19.53125 -27.203125 C 19.332031 -26.035156 19.234375 -24.96875 19.234375 -24 C 19.234375 -20.820312 20.15625 -18.3125 22 -16.46875 C 23.851562 -14.625 26.171875 -13.703125 28.953125 -13.703125 C 32.253906 -13.703125 35.265625 -14.898438 37.984375 -17.296875 C 40.703125 -19.691406 42.453125 -22.960938 43.234375 -27.109375 Z M 43.234375 -27.109375 "/></g></g></g><g fill="#ffffff" fill-opacity="1"><g transform="translate(241.34367, 122.117124)"><g><path d="M 20.015625 -59.84375 C 17.421875 -59.84375 15.363281 -60.539062 13.84375 -61.9375 C 12.320312 -63.332031 11.5625 -65.097656 11.5625 -67.234375 C 11.5625 -70.148438 12.691406 -72.644531 14.953125 -74.71875 C 17.222656 -76.789062 19.976562 -77.828125 23.21875 -77.828125 C 25.8125 -77.828125 27.851562 -77.128906 29.34375 -75.734375 C 30.832031 -74.335938 31.578125 -72.539062 31.578125 -70.34375 C 31.578125 -67.488281 30.441406 -65.023438 28.171875 -62.953125 C 25.910156 -60.878906 23.191406 -59.84375 20.015625 -59.84375 Z M 27.203125 -54.21875 L 17.6875 0 L 1.0625 0 L 10.59375 -54.21875 Z M 27.203125 -54.21875 "/></g></g></g><g fill="#ffffff" fill-opacity="1"><g transform="translate(262.709223, 122.117124)"><g><path d="M 25.84375 0.78125 C 21.175781 0.78125 17.03125 -0.15625 13.40625 -2.03125 C 9.78125 -3.914062 6.976562 -6.570312 5 -10 C 3.03125 -13.4375 2.046875 -17.421875 2.046875 -21.953125 C 2.046875 -28.109375 3.5 -33.710938 6.40625 -38.765625 C 9.320312 -43.816406 13.335938 -47.78125 18.453125 -50.65625 C 23.578125 -53.539062 29.28125 -54.984375 35.5625 -54.984375 C 40.21875 -54.984375 44.375 -54.03125 48.03125 -52.125 C 51.695312 -50.21875 54.535156 -47.546875 56.546875 -44.109375 C 58.554688 -40.671875 59.5625 -36.6875 59.5625 -32.15625 C 59.5625 -25.9375 58.085938 -20.316406 55.140625 -15.296875 C 52.191406 -10.273438 48.140625 -6.335938 42.984375 -3.484375 C 37.835938 -0.640625 32.125 0.78125 25.84375 0.78125 Z M 28.171875 -13.5 C 30.890625 -13.5 33.332031 -14.320312 35.5 -15.96875 C 37.675781 -17.625 39.363281 -19.765625 40.5625 -22.390625 C 41.757812 -25.015625 42.359375 -27.753906 42.359375 -30.609375 C 42.359375 -33.847656 41.484375 -36.335938 39.734375 -38.078125 C 37.984375 -39.828125 35.78125 -40.703125 33.125 -40.703125 C 30.34375 -40.703125 27.898438 -39.875 25.796875 -38.21875 C 23.691406 -36.570312 22.054688 -34.421875 20.890625 -31.765625 C 19.722656 -29.109375 19.140625 -26.328125 19.140625 -23.421875 C 19.140625 -20.242188 19.976562 -17.796875 21.65625 -16.078125 C 23.34375 -14.359375 25.515625 -13.5 28.171875 -13.5 Z M 28.171875 -13.5 "/></g></g></g></g></g></g><path fill="#004aad" d="M 148.261719 167.816406 L 334.386719 167.816406 C 382.75 167.816406 421.953125 207.023438 421.953125 255.382812 C 421.953125 303.742188 382.75 342.945312 334.386719 342.945312 L 148.261719 342.945312 C 99.898438 342.945312 60.695312 303.742188 60.695312 255.382812 C 60.695312 207.023438 99.898438 167.816406 148.261719 167.816406 Z M 148.261719 167.816406 " fill-opacity="1" fill-rule="nonzero"/><g fill="#ffffff" fill-opacity="1"><g transform="translate(99.561272, 289.447368)"><g><path d="M 90.359375 -68.203125 L 78.3125 0 L 61.6875 0 L 68.984375 -40.90625 L 46.4375 0 L 33.03125 0 L 24.875 -41.09375 L 17.6875 0 L 1.0625 0 L 13.109375 -68.203125 L 32.734375 -68.203125 L 43.625 -20.984375 L 70.828125 -68.203125 Z M 90.359375 -68.203125 "/></g></g></g><g fill="#ffffff" fill-opacity="1"><g transform="translate(181.437408, 289.447368)"><g><path d="M 34.875 -54.984375 C 41.875 -54.984375 47.425781 -53.085938 51.53125 -49.296875 C 55.644531 -45.515625 57.703125 -40.351562 57.703125 -33.8125 C 57.703125 -31.675781 57.539062 -29.765625 57.21875 -28.078125 C 56.96875 -26.585938 56.582031 -25 56.0625 -23.3125 L 18.453125 -23.3125 C 18.390625 -22.925781 18.359375 -22.3125 18.359375 -21.46875 C 18.359375 -18.625 19.132812 -16.457031 20.6875 -14.96875 C 22.25 -13.476562 24.320312 -12.734375 26.90625 -12.734375 C 31.050781 -12.734375 34.226562 -14.476562 36.4375 -17.96875 L 54.109375 -17.96875 C 51.785156 -12.46875 48 -7.96875 42.75 -4.46875 C 37.5 -0.96875 31.601562 0.78125 25.0625 0.78125 C 18.070312 0.78125 12.488281 -1.160156 8.3125 -5.046875 C 4.132812 -8.929688 2.046875 -14.210938 2.046875 -20.890625 C 2.046875 -22.898438 2.238281 -24.972656 2.625 -27.109375 C 3.59375 -32.742188 5.597656 -37.664062 8.640625 -41.875 C 11.691406 -46.082031 15.484375 -49.316406 20.015625 -51.578125 C 24.546875 -53.847656 29.5 -54.984375 34.875 -54.984375 Z M 40.90625 -31.765625 C 41.03125 -32.671875 41.09375 -33.285156 41.09375 -33.609375 C 41.09375 -36.203125 40.28125 -38.195312 38.65625 -39.59375 C 37.039062 -40.988281 34.90625 -41.6875 32.25 -41.6875 C 29.40625 -41.6875 26.894531 -40.828125 24.71875 -39.109375 C 22.550781 -37.390625 20.984375 -34.941406 20.015625 -31.765625 Z M 40.90625 -31.765625 "/></g></g></g><g fill="#ffffff" fill-opacity="1"><g transform="translate(233.980977, 289.447368)"><g><path d="M 64.125 -54.21875 L 54.609375 0 L 37.984375 0 L 39.25 -7.390625 C 37.113281 -4.992188 34.503906 -3.066406 31.421875 -1.609375 C 28.347656 -0.148438 25.0625 0.578125 21.5625 0.578125 C 16.125 0.578125 11.847656 -0.957031 8.734375 -4.03125 C 5.628906 -7.101562 4.078125 -11.394531 4.078125 -16.90625 C 4.078125 -18.976562 4.238281 -20.859375 4.5625 -22.546875 L 10.203125 -54.21875 L 26.71875 -54.21875 L 21.5625 -24.78125 C 21.375 -23.738281 21.28125 -22.734375 21.28125 -21.765625 C 21.28125 -19.046875 22.039062 -16.957031 23.5625 -15.5 C 25.082031 -14.039062 27.203125 -13.3125 29.921875 -13.3125 C 33.035156 -13.3125 35.675781 -14.234375 37.84375 -16.078125 C 40.007812 -17.921875 41.453125 -20.5625 42.171875 -24 L 47.515625 -54.21875 Z M 64.125 -54.21875 "/></g></g></g><g fill="#ffffff" fill-opacity="1"><g transform="translate(292.169219, 289.447368)"><g/></g></g><g fill="#ffffff" fill-opacity="1"><g transform="translate(307.3186, 289.447368)"><g/></g></g><g fill="#ffffff" fill-opacity="1"><g transform="translate(322.467982, 289.447368)"><g/></g></g><g fill="#ffffff" fill-opacity="1"><g transform="translate(337.617361, 289.447368)"><g/></g></g><g fill="#ffffff" fill-opacity="1"><g transform="translate(352.766744, 289.447368)"><g/></g></g><g fill="#ffffff" fill-opacity="1"><g transform="translate(367.916127, 289.447368)"><g/></g></g><g clip-path="url(#cf45aada67)"><path fill="#ffffff" d="M 382.953125 218.605469 L 390.488281 226.332031 L 362.160156 253.828125 L 344.609375 235.890625 L 300.1875 279.414062 L 314.234375 291.542969 L 344.300781 262.039062 L 361.796875 279.925781 L 361.820312 279.902344 L 361.839844 279.925781 L 403.410156 239.582031 L 412.046875 248.441406 L 416.625 214.269531 L 382.953125 218.605469 " fill-opacity="1" fill-rule="nonzero"/></g><g mask="url(#70d2ff2c31)"><g transform="matrix(1, 0, 0, 1, 174, 293)"><g clip-path="url(#682abb2ec0)"><g fill="#211a1a" fill-opacity="1"><g transform="translate(0.605735, 74.236918)"><g><path d="M 3.15625 -24.640625 C 3.988281 -29.492188 5.789062 -33.820312 8.5625 -37.625 C 11.34375 -41.425781 14.785156 -44.390625 18.890625 -46.515625 C 23.003906 -48.640625 27.441406 -49.703125 32.203125 -49.703125 C 38.035156 -49.703125 42.757812 -48.160156 46.375 -45.078125 C 49.988281 -41.992188 52.03125 -37.796875 52.5 -32.484375 L 39.34375 -32.484375 C 38.738281 -34.484375 37.628906 -36.007812 36.015625 -37.0625 C 34.398438 -38.113281 32.425781 -38.640625 30.09375 -38.640625 C 26.40625 -38.640625 23.207031 -37.367188 20.5 -34.828125 C 17.800781 -32.285156 16.078125 -28.890625 15.328125 -24.640625 C 15.097656 -23.335938 14.984375 -22.191406 14.984375 -21.203125 C 14.984375 -17.941406 15.890625 -15.351562 17.703125 -13.4375 C 19.523438 -11.519531 22.023438 -10.5625 25.203125 -10.5625 C 27.484375 -10.5625 29.613281 -11.097656 31.59375 -12.171875 C 33.582031 -13.253906 35.253906 -14.796875 36.609375 -16.796875 L 49.765625 -16.796875 C 47.429688 -11.472656 43.90625 -7.285156 39.1875 -4.234375 C 34.476562 -1.179688 29.207031 0.34375 23.375 0.34375 C 19.175781 0.34375 15.515625 -0.46875 12.390625 -2.09375 C 9.265625 -3.726562 6.859375 -6.039062 5.171875 -9.03125 C 3.492188 -12.019531 2.65625 -15.492188 2.65625 -19.453125 C 2.65625 -21.234375 2.820312 -22.960938 3.15625 -24.640625 Z M 3.15625 -24.640625 "/></g></g></g><g fill="#211a1a" fill-opacity="1"><g transform="translate(48.692834, 74.236918)"><g><path d="M 18.625 0.5625 C 15.257812 0.5625 12.269531 -0.113281 9.65625 -1.46875 C 7.039062 -2.820312 5.019531 -4.734375 3.59375 -7.203125 C 2.175781 -9.679688 1.46875 -12.550781 1.46875 -15.8125 C 1.46875 -20.25 2.515625 -24.285156 4.609375 -27.921875 C 6.710938 -31.566406 9.609375 -34.425781 13.296875 -36.5 C 16.984375 -38.582031 21.09375 -39.625 25.625 -39.625 C 28.976562 -39.625 31.972656 -38.929688 34.609375 -37.546875 C 37.242188 -36.171875 39.285156 -34.242188 40.734375 -31.765625 C 42.179688 -29.296875 42.90625 -26.429688 42.90625 -23.171875 C 42.90625 -18.691406 41.84375 -14.640625 39.71875 -11.015625 C 37.601562 -7.398438 34.6875 -4.566406 30.96875 -2.515625 C 27.257812 -0.460938 23.144531 0.5625 18.625 0.5625 Z M 20.296875 -9.734375 C 22.253906 -9.734375 24.015625 -10.328125 25.578125 -11.515625 C 27.148438 -12.703125 28.363281 -14.238281 29.21875 -16.125 C 30.082031 -18.019531 30.515625 -19.992188 30.515625 -22.046875 C 30.515625 -24.378906 29.882812 -26.175781 28.625 -27.4375 C 27.363281 -28.695312 25.78125 -29.328125 23.875 -29.328125 C 21.863281 -29.328125 20.097656 -28.734375 18.578125 -27.546875 C 17.066406 -26.359375 15.890625 -24.804688 15.046875 -22.890625 C 14.210938 -20.972656 13.796875 -18.96875 13.796875 -16.875 C 13.796875 -14.582031 14.398438 -12.816406 15.609375 -11.578125 C 16.828125 -10.347656 18.390625 -9.734375 20.296875 -9.734375 Z M 20.296875 -9.734375 "/></g></g></g><g fill="#211a1a" fill-opacity="1"><g transform="translate(88.030411, 74.236918)"><g><path d="M 31.5 -39.484375 C 35.414062 -39.484375 38.492188 -38.382812 40.734375 -36.1875 C 42.972656 -34 44.09375 -30.941406 44.09375 -27.015625 C 44.09375 -25.710938 43.957031 -24.3125 43.6875 -22.8125 L 39.625 0 L 27.71875 0 L 31.5 -21.203125 C 31.632812 -22.003906 31.703125 -22.707031 31.703125 -23.3125 C 31.703125 -25.269531 31.15625 -26.785156 30.0625 -27.859375 C 28.96875 -28.929688 27.441406 -29.46875 25.484375 -29.46875 C 23.148438 -29.46875 21.1875 -28.742188 19.59375 -27.296875 C 18.007812 -25.847656 16.984375 -23.816406 16.515625 -21.203125 L 16.515625 -21.5625 L 12.734375 0 L 0.765625 0 L 7.625 -39.0625 L 19.59375 -39.0625 L 18.6875 -33.8125 C 20.226562 -35.539062 22.109375 -36.914062 24.328125 -37.9375 C 26.546875 -38.96875 28.9375 -39.484375 31.5 -39.484375 Z M 31.5 -39.484375 "/></g></g></g><g fill="#211a1a" fill-opacity="1"><g transform="translate(129.957842, 74.236918)"><g><path d="M 17.015625 -13.4375 C 16.960938 -13.207031 16.9375 -12.90625 16.9375 -12.53125 C 16.9375 -11.6875 17.179688 -11.078125 17.671875 -10.703125 C 18.160156 -10.335938 18.96875 -10.15625 20.09375 -10.15625 L 24.359375 -10.15625 L 22.546875 0 L 16.453125 0 C 8.609375 0 4.6875 -3.289062 4.6875 -9.875 C 4.6875 -10.851562 4.804688 -12.085938 5.046875 -13.578125 L 7.84375 -29.125 L 3.078125 -29.125 L 4.828125 -39.0625 L 9.59375 -39.0625 L 11.265625 -48.578125 L 23.234375 -48.578125 L 21.5625 -39.0625 L 29.40625 -39.0625 L 27.65625 -29.125 L 19.8125 -29.125 Z M 17.015625 -13.4375 "/></g></g></g><g fill="#211a1a" fill-opacity="1"><g transform="translate(153.126302, 74.236918)"><g><path d="M 1.890625 -19.59375 C 2.585938 -23.613281 3.960938 -27.140625 6.015625 -30.171875 C 8.066406 -33.203125 10.539062 -35.535156 13.4375 -37.171875 C 16.332031 -38.804688 19.390625 -39.625 22.609375 -39.625 C 25.359375 -39.625 27.664062 -39.0625 29.53125 -37.9375 C 31.40625 -36.820312 32.757812 -35.351562 33.59375 -33.53125 L 34.578125 -39.0625 L 46.546875 -39.0625 L 39.625 0 L 27.65625 0 L 28.703125 -5.53125 C 27.203125 -3.707031 25.304688 -2.234375 23.015625 -1.109375 C 20.734375 0.00390625 18.21875 0.5625 15.46875 0.5625 C 12.71875 0.5625 10.28125 -0.0664062 8.15625 -1.328125 C 6.03125 -2.585938 4.382812 -4.375 3.21875 -6.6875 C 2.050781 -9 1.46875 -11.71875 1.46875 -14.84375 C 1.46875 -16.332031 1.609375 -17.914062 1.890625 -19.59375 Z M 31.15625 -19.53125 C 31.289062 -20.375 31.359375 -21.144531 31.359375 -21.84375 C 31.359375 -24.125 30.691406 -25.914062 29.359375 -27.21875 C 28.035156 -28.53125 26.347656 -29.1875 24.296875 -29.1875 C 21.910156 -29.1875 19.738281 -28.332031 17.78125 -26.625 C 15.820312 -24.925781 14.582031 -22.582031 14.0625 -19.59375 C 13.925781 -18.757812 13.859375 -17.992188 13.859375 -17.296875 C 13.859375 -15.003906 14.519531 -13.191406 15.84375 -11.859375 C 17.175781 -10.535156 18.847656 -9.875 20.859375 -9.875 C 23.242188 -9.875 25.414062 -10.734375 27.375 -12.453125 C 29.332031 -14.179688 30.59375 -16.539062 31.15625 -19.53125 Z M 31.15625 -19.53125 "/></g></g></g><g fill="#211a1a" fill-opacity="1"><g transform="translate(195.403716, 74.236918)"><g><path d="M 18.625 -33.53125 C 20.113281 -35.351562 22 -36.820312 24.28125 -37.9375 C 26.570312 -39.0625 29.070312 -39.625 31.78125 -39.625 C 35.976562 -39.625 39.367188 -38.257812 41.953125 -35.53125 C 44.546875 -32.800781 45.84375 -29.078125 45.84375 -24.359375 C 45.84375 -22.867188 45.707031 -21.28125 45.4375 -19.59375 C 44.726562 -15.582031 43.347656 -12.046875 41.296875 -8.984375 C 39.242188 -5.929688 36.769531 -3.578125 33.875 -1.921875 C 30.988281 -0.265625 27.929688 0.5625 24.703125 0.5625 C 21.953125 0.5625 19.644531 0.015625 17.78125 -1.078125 C 15.914062 -2.179688 14.5625 -3.640625 13.71875 -5.453125 L 12.734375 0 L 0.765625 0 L 9.9375 -51.796875 L 21.90625 -51.796875 Z M 33.3125 -19.59375 C 33.457031 -20.394531 33.53125 -21.117188 33.53125 -21.765625 C 33.53125 -24.097656 32.863281 -25.914062 31.53125 -27.21875 C 30.207031 -28.53125 28.515625 -29.1875 26.453125 -29.1875 C 24.078125 -29.1875 21.910156 -28.320312 19.953125 -26.59375 C 17.992188 -24.875 16.734375 -22.519531 16.171875 -19.53125 C 16.023438 -18.6875 15.953125 -17.914062 15.953125 -17.21875 C 15.953125 -14.9375 16.601562 -13.140625 17.90625 -11.828125 C 19.21875 -10.523438 20.898438 -9.875 22.953125 -9.875 C 25.335938 -9.875 27.519531 -10.75 29.5 -12.5 C 31.488281 -14.25 32.757812 -16.613281 33.3125 -19.59375 Z M 33.3125 -19.59375 "/></g></g></g><g fill="#211a1a" fill-opacity="1"><g transform="translate(237.681142, 74.236918)"><g><path d="M 14.421875 -43.125 C 12.554688 -43.125 11.070312 -43.625 9.96875 -44.625 C 8.875 -45.625 8.328125 -46.894531 8.328125 -48.4375 C 8.328125 -50.539062 9.144531 -52.335938 10.78125 -53.828125 C 12.414062 -55.316406 14.398438 -56.0625 16.734375 -56.0625 C 18.597656 -56.0625 20.066406 -55.5625 21.140625 -54.5625 C 22.210938 -53.5625 22.75 -52.269531 22.75 -50.6875 C 22.75 -48.625 21.929688 -46.847656 20.296875 -45.359375 C 18.660156 -43.867188 16.703125 -43.125 14.421875 -43.125 Z M 19.59375 -39.0625 L 12.734375 0 L 0.765625 0 L 7.625 -39.0625 Z M 19.59375 -39.0625 "/></g></g></g><g fill="#211a1a" fill-opacity="1"><g transform="translate(253.080036, 74.236918)"><g><path d="M 21.90625 -51.796875 L 12.734375 0 L 0.765625 0 L 9.9375 -51.796875 Z M 21.90625 -51.796875 "/></g></g></g><g fill="#211a1a" fill-opacity="1"><g transform="translate(268.478931, 74.236918)"><g><path d="M 14.421875 -43.125 C 12.554688 -43.125 11.070312 -43.625 9.96875 -44.625 C 8.875 -45.625 8.328125 -46.894531 8.328125 -48.4375 C 8.328125 -50.539062 9.144531 -52.335938 10.78125 -53.828125 C 12.414062 -55.316406 14.398438 -56.0625 16.734375 -56.0625 C 18.597656 -56.0625 20.066406 -55.5625 21.140625 -54.5625 C 22.210938 -53.5625 22.75 -52.269531 22.75 -50.6875 C 22.75 -48.625 21.929688 -46.847656 20.296875 -45.359375 C 18.660156 -43.867188 16.703125 -43.125 14.421875 -43.125 Z M 19.59375 -39.0625 L 12.734375 0 L 0.765625 0 L 7.625 -39.0625 Z M 19.59375 -39.0625 "/></g></g></g><g fill="#211a1a" fill-opacity="1"><g transform="translate(283.877825, 74.236918)"><g><path d="M 17.015625 0.5625 C 13.929688 0.5625 11.164062 0.0703125 8.71875 -0.90625 C 6.269531 -1.882812 4.34375 -3.25 2.9375 -5 C 1.539062 -6.75 0.84375 -8.769531 0.84375 -11.0625 C 0.84375 -11.382812 0.890625 -11.96875 0.984375 -12.8125 L 12.53125 -12.8125 C 12.4375 -11.363281 12.867188 -10.207031 13.828125 -9.34375 C 14.785156 -8.476562 16.148438 -8.046875 17.921875 -8.046875 C 19.410156 -8.046875 20.644531 -8.328125 21.625 -8.890625 C 22.601562 -9.453125 23.09375 -10.242188 23.09375 -11.265625 C 23.09375 -12.242188 22.566406 -13.023438 21.515625 -13.609375 C 20.472656 -14.191406 18.738281 -14.90625 16.3125 -15.75 C 13.789062 -16.59375 11.675781 -17.421875 9.96875 -18.234375 C 8.269531 -19.046875 6.8125 -20.222656 5.59375 -21.765625 C 4.382812 -23.304688 3.78125 -25.242188 3.78125 -27.578125 C 3.78125 -29.867188 4.457031 -31.9375 5.8125 -33.78125 C 7.164062 -35.625 9.066406 -37.054688 11.515625 -38.078125 C 13.960938 -39.109375 16.796875 -39.625 20.015625 -39.625 C 23.234375 -39.625 26.03125 -39.097656 28.40625 -38.046875 C 30.789062 -36.992188 32.632812 -35.535156 33.9375 -33.671875 C 35.25 -31.804688 35.90625 -29.707031 35.90625 -27.375 L 35.84375 -26.3125 L 24.984375 -26.3125 C 25.078125 -27.71875 24.65625 -28.835938 23.71875 -29.671875 C 22.789062 -30.515625 21.460938 -30.9375 19.734375 -30.9375 C 18.378906 -30.9375 17.269531 -30.65625 16.40625 -30.09375 C 15.550781 -29.539062 15.125 -28.773438 15.125 -27.796875 C 15.125 -26.765625 15.691406 -25.910156 16.828125 -25.234375 C 17.972656 -24.554688 19.757812 -23.796875 22.1875 -22.953125 C 24.707031 -22.117188 26.796875 -21.289062 28.453125 -20.46875 C 30.109375 -19.65625 31.53125 -18.515625 32.71875 -17.046875 C 33.914062 -15.578125 34.515625 -13.742188 34.515625 -11.546875 C 34.515625 -9.023438 33.753906 -6.851562 32.234375 -5.03125 C 30.710938 -3.21875 28.632812 -1.832031 26 -0.875 C 23.363281 0.0820312 20.367188 0.5625 17.015625 0.5625 Z M 17.015625 0.5625 "/></g></g></g><g fill="#211a1a" fill-opacity="1"><g transform="translate(317.685708, 74.236918)"><g><path d="M 17.015625 -13.4375 C 16.960938 -13.207031 16.9375 -12.90625 16.9375 -12.53125 C 16.9375 -11.6875 17.179688 -11.078125 17.671875 -10.703125 C 18.160156 -10.335938 18.96875 -10.15625 20.09375 -10.15625 L 24.359375 -10.15625 L 22.546875 0 L 16.453125 0 C 8.609375 0 4.6875 -3.289062 4.6875 -9.875 C 4.6875 -10.851562 4.804688 -12.085938 5.046875 -13.578125 L 7.84375 -29.125 L 3.078125 -29.125 L 4.828125 -39.0625 L 9.59375 -39.0625 L 11.265625 -48.578125 L 23.234375 -48.578125 L 21.5625 -39.0625 L 29.40625 -39.0625 L 27.65625 -29.125 L 19.8125 -29.125 Z M 17.015625 -13.4375 "/></g></g></g><g fill="#211a1a" fill-opacity="1"><g transform="translate(340.854179, 74.236918)"><g><path d="M 1.890625 -19.59375 C 2.585938 -23.613281 3.960938 -27.140625 6.015625 -30.171875 C 8.066406 -33.203125 10.539062 -35.535156 13.4375 -37.171875 C 16.332031 -38.804688 19.390625 -39.625 22.609375 -39.625 C 25.359375 -39.625 27.664062 -39.0625 29.53125 -37.9375 C 31.40625 -36.820312 32.757812 -35.351562 33.59375 -33.53125 L 34.578125 -39.0625 L 46.546875 -39.0625 L 39.625 0 L 27.65625 0 L 28.703125 -5.53125 C 27.203125 -3.707031 25.304688 -2.234375 23.015625 -1.109375 C 20.734375 0.00390625 18.21875 0.5625 15.46875 0.5625 C 12.71875 0.5625 10.28125 -0.0664062 8.15625 -1.328125 C 6.03125 -2.585938 4.382812 -4.375 3.21875 -6.6875 C 2.050781 -9 1.46875 -11.71875 1.46875 -14.84375 C 1.46875 -16.332031 1.609375 -17.914062 1.890625 -19.59375 Z M 31.15625 -19.53125 C 31.289062 -20.375 31.359375 -21.144531 31.359375 -21.84375 C 31.359375 -24.125 30.691406 -25.914062 29.359375 -27.21875 C 28.035156 -28.53125 26.347656 -29.1875 24.296875 -29.1875 C 21.910156 -29.1875 19.738281 -28.332031 17.78125 -26.625 C 15.820312 -24.925781 14.582031 -22.582031 14.0625 -19.59375 C 13.925781 -18.757812 13.859375 -17.992188 13.859375 -17.296875 C 13.859375 -15.003906 14.519531 -13.191406 15.84375 -11.859375 C 17.175781 -10.535156 18.847656 -9.875 20.859375 -9.875 C 23.242188 -9.875 25.414062 -10.734375 27.375 -12.453125 C 29.332031 -14.179688 30.59375 -16.539062 31.15625 -19.53125 Z M 31.15625 -19.53125 "/></g></g></g></g></g></g><path stroke-linecap="butt" transform="matrix(0.75, 0, 0, 0.75, 168.42115, 292.560975)" fill="none" stroke-linejoin="miter" d="M 4.193675 55.142661 C 5.318675 48.673911 7.724925 42.908286 11.417634 37.850994 C 15.120759 32.772868 19.709301 28.824952 25.178051 26.002035 C 30.662426 23.158285 36.579093 21.741618 42.928052 21.741618 C 50.704094 21.741618 57.000969 23.79891 61.818678 27.913493 C 66.646803 32.01766 69.37597 37.606202 69.995761 44.684327 L 52.454094 44.684327 C 51.646802 42.012452 50.167636 39.975994 48.011385 38.58016 C 45.865552 37.179119 43.240552 36.481202 40.125968 36.481202 C 35.219718 36.481202 30.959301 38.17391 27.344718 41.564535 C 23.740551 44.949952 21.443676 49.475994 20.438468 55.142661 C 20.136384 56.887453 19.985343 58.418703 19.985343 59.720786 C 19.985343 64.080161 21.188468 67.538495 23.605134 70.090578 C 26.037426 72.642662 29.37076 73.918704 33.610343 73.918704 C 36.646802 73.918704 39.485343 73.205162 42.131177 71.778078 C 44.771802 70.33537 47.000969 68.27287 48.808261 65.600995 L 66.349928 65.600995 C 63.235344 72.694745 58.537428 78.278079 52.245761 82.350996 C 45.974927 86.418704 38.948885 88.455162 31.172843 88.455162 C 25.563468 88.455162 20.683259 87.371829 16.521801 85.199954 C 12.355134 83.022871 9.152009 79.949954 6.902009 75.970787 C 4.672842 71.975995 3.55305 67.33537 3.55305 62.048911 C 3.55305 59.694745 3.766592 57.392661 4.193675 55.142661 Z M 88.954096 88.752037 C 84.46972 88.752037 80.485345 87.845787 76.990553 86.038496 C 73.511387 84.231204 70.823886 81.679121 68.922845 78.382245 C 67.027011 75.090579 66.073886 71.262453 66.073886 66.903078 C 66.073886 60.99162 67.474928 55.611411 70.266595 50.767661 C 73.079095 45.908286 76.93847 42.095786 81.84472 39.33016 C 86.766595 36.564535 92.240554 35.184327 98.271804 35.184327 C 102.750971 35.184327 106.745763 36.100994 110.25618 37.939535 C 113.782222 39.762452 116.50618 42.330161 118.438472 45.642661 C 120.365555 48.939536 121.329097 52.757244 121.329097 57.100994 C 121.329097 63.074953 119.91243 68.470787 117.06868 73.30412 C 114.245763 78.11662 110.355138 81.903079 105.402013 84.653079 C 100.464513 87.382246 94.985346 88.752037 88.954096 88.752037 Z M 91.183262 75.033287 C 93.797846 75.033287 96.146804 74.246829 98.224929 72.663495 C 100.308263 71.069745 101.922846 69.012453 103.079096 66.49162 C 104.235346 63.970786 104.813471 61.340578 104.813471 58.606203 C 104.813471 55.491619 103.969721 53.100994 102.282221 51.429119 C 100.610346 49.741619 98.500971 48.897869 95.948888 48.897869 C 93.271804 48.897869 90.917637 49.694744 88.886387 51.293703 C 86.865554 52.871828 85.292637 54.939536 84.167637 57.491619 C 83.058262 60.043703 82.506179 62.715578 82.506179 65.512453 C 82.506179 68.564537 83.308262 70.918703 84.917637 72.574953 C 86.542637 74.215579 88.631179 75.033287 91.183262 75.033287 Z M 158.558265 35.366619 C 163.787432 35.366619 167.886391 36.83016 170.865557 39.762452 C 173.855141 42.679119 175.355141 46.752036 175.355141 51.975994 C 175.355141 53.720786 175.172849 55.590578 174.808266 57.580161 L 169.381182 88.002037 L 153.527015 88.002037 L 158.558265 59.720786 C 158.740557 58.658286 158.834307 57.725995 158.834307 56.918703 C 158.834307 54.309328 158.10514 52.288494 156.646807 50.861411 C 155.188473 49.429119 153.152015 48.715577 150.537432 48.715577 C 147.428056 48.715577 144.813473 49.684327 142.69889 51.611411 C 140.589514 53.538494 139.224931 56.246828 138.599931 59.720786 L 138.599931 59.246828 L 133.542639 88.002037 L 117.589513 88.002037 L 126.730139 35.913494 L 142.69889 35.913494 L 141.495764 42.929119 C 143.54264 40.621827 146.04264 38.783285 148.990556 37.413494 C 151.954098 36.04891 155.141598 35.366619 158.558265 35.366619 Z M 195.1416 70.090578 C 195.0791 70.392662 195.04785 70.798912 195.04785 71.298912 C 195.04785 72.423912 195.375975 73.236412 196.032225 73.736412 C 196.683267 74.220787 197.761392 74.465579 199.2666 74.465579 L 204.938476 74.465579 L 202.521809 88.002037 L 194.412433 88.002037 C 183.943683 88.002037 178.714516 83.611412 178.714516 74.830162 C 178.714516 73.52287 178.870766 71.877037 179.193683 69.887453 L 182.928058 49.173911 L 176.568683 49.173911 L 178.917641 35.913494 L 185.250975 35.913494 L 187.48535 23.220785 L 203.459309 23.220785 L 201.224934 35.913494 L 211.662434 35.913494 L 209.334309 49.173911 L 198.875975 49.173911 Z M 205.891601 61.86662 C 206.818684 56.517661 208.646809 51.824953 211.381184 47.783286 C 214.115559 43.725994 217.412434 40.61141 221.27181 38.439535 C 225.131185 36.26766 229.20931 35.184327 233.506185 35.184327 C 237.183269 35.184327 240.256185 35.929119 242.735352 37.413494 C 245.224936 38.903077 247.032227 40.866619 248.157227 43.293702 L 249.454102 35.913494 L 265.428061 35.913494 L 256.178061 88.002037 L 240.230144 88.002037 L 241.61556 80.61662 C 239.625977 83.048912 237.105144 85.017662 234.05306 86.517662 C 231.016602 88.007246 227.657226 88.752037 223.980143 88.752037 C 220.318685 88.752037 217.068684 87.918704 214.230143 86.246829 C 211.402017 84.559329 209.209309 82.173912 207.646809 79.090579 C 206.094726 76.007245 205.318684 72.382245 205.318684 68.220787 C 205.318684 66.231203 205.511392 64.111411 205.891601 61.86662 Z M 244.896811 61.955161 C 245.079102 60.830161 245.172852 59.80412 245.172852 58.882245 C 245.172852 55.824953 244.282227 53.434328 242.506185 51.699953 C 240.745769 49.955161 238.49056 49.080161 235.74056 49.080161 C 232.563477 49.080161 229.672852 50.220786 227.058268 52.502036 C 224.443685 54.762453 222.797851 57.887453 222.11556 61.86662 C 221.933268 62.986411 221.839518 64.012453 221.839518 64.939536 C 221.839518 67.99162 222.719726 70.408287 224.485351 72.184328 C 226.261393 73.949954 228.495768 74.830162 231.183268 74.830162 C 234.355143 74.830162 237.250977 73.684329 239.86556 71.387453 C 242.474935 69.080162 244.157227 65.934328 244.896811 61.955161 Z M 284.568687 43.293702 C 286.558271 40.866619 289.068687 38.903077 292.110354 37.413494 C 295.162438 35.929119 298.495771 35.184327 302.110355 35.184327 C 307.704105 35.184327 312.21973 37.007244 315.667647 40.653077 C 319.131189 44.283286 320.865564 49.241619 320.865564 55.528078 C 320.865564 57.522869 320.672855 59.632245 320.292647 61.86662 C 319.370772 67.21037 317.53223 71.92912 314.78223 76.012454 C 312.047855 80.08537 308.75098 83.231204 304.891605 85.449954 C 301.047855 87.653079 296.980146 88.752037 292.678063 88.752037 C 289.000979 88.752037 285.917646 88.022871 283.428062 86.564537 C 280.954104 85.090579 279.15202 83.147871 278.02702 80.731204 L 276.704104 88.002037 L 260.756186 88.002037 L 272.990562 18.934326 L 288.943687 18.934326 Z M 304.162438 61.86662 C 304.34473 60.80412 304.43848 59.83537 304.43848 58.970786 C 304.43848 55.856203 303.547855 53.434328 301.771813 51.699953 C 300.006188 49.955161 297.750979 49.080161 295.000979 49.080161 C 291.829104 49.080161 288.933271 50.236411 286.323896 52.543703 C 283.709312 54.840578 282.032229 57.975995 281.287437 61.955161 C 281.105145 63.080161 281.011395 64.106203 281.011395 65.033286 C 281.011395 68.08537 281.875979 70.486412 283.610354 72.231203 C 285.355146 73.965579 287.599937 74.830162 290.334313 74.830162 C 293.506188 74.830162 296.417646 73.668704 299.058271 71.345787 C 301.714521 69.002037 303.417646 65.845787 304.162438 61.86662 Z M 335.329106 30.512452 C 332.839523 30.512452 330.860356 29.845785 329.386398 28.507243 C 327.928064 27.168702 327.198897 25.475993 327.198897 23.42391 C 327.198897 20.616618 328.282231 18.215576 330.454106 16.225993 C 332.641606 14.236409 335.292648 13.241618 338.407231 13.241618 C 340.896815 13.241618 342.860356 13.908284 344.28744 15.246826 C 345.714523 16.580159 346.428065 18.314534 346.428065 20.439535 C 346.428065 23.17391 345.334315 25.538493 343.146815 27.528077 C 340.97494 29.51766 338.370773 30.512452 335.329106 30.512452 Z M 342.235356 35.913494 L 333.073898 88.002037 L 317.12598 88.002037 L 326.261397 35.913494 Z M 365.844732 18.934326 L 353.605149 88.002037 L 337.657231 88.002037 L 349.891607 18.934326 Z M 376.396816 30.512452 C 373.902024 30.512452 371.922858 29.845785 370.448899 28.507243 C 368.990566 27.168702 368.261399 25.475993 368.261399 23.42391 C 368.261399 20.616618 369.344733 18.215576 371.521816 16.225993 C 373.704108 14.236409 376.35515 13.241618 379.469733 13.241618 C 381.964525 13.241618 383.922858 13.908284 385.349942 15.246826 C 386.777025 16.580159 387.490567 18.314534 387.490567 20.439535 C 387.490567 23.17391 386.396817 25.538493 384.209317 27.528077 C 382.037441 29.51766 379.433275 30.512452 376.396816 30.512452 Z M 383.297858 35.913494 L 374.141608 88.002037 L 358.188482 88.002037 L 367.329107 35.913494 Z M 400.365567 88.752037 C 396.266609 88.752037 392.584317 88.100996 389.318692 86.793704 C 386.053067 85.486412 383.485358 83.668704 381.615566 81.345787 C 379.745775 79.007245 378.813483 76.309329 378.813483 73.257245 C 378.813483 72.819745 378.875983 72.033287 378.995775 70.908287 L 394.396817 70.908287 C 394.277025 72.840578 394.85515 74.382245 396.131192 75.538495 C 397.407234 76.689537 399.23015 77.267662 401.599942 77.267662 C 403.589526 77.267662 405.235359 76.89787 406.542651 76.153079 C 407.849943 75.408287 408.500984 74.350995 408.500984 72.986412 C 408.500984 71.67912 407.797859 70.637453 406.381192 69.861412 C 404.985359 69.074953 402.667651 68.11662 399.433275 66.99162 C 396.079109 65.882245 393.256192 64.783286 390.98015 63.689536 C 388.714525 62.595786 386.771817 61.02287 385.146817 58.970786 C 383.537441 56.918703 382.73015 54.340578 382.73015 51.225994 C 382.73015 48.168702 383.6364 45.418702 385.443692 42.975994 C 387.250983 40.512452 389.787442 38.600994 393.053067 37.231202 C 396.318692 35.866619 400.094734 35.184327 404.375984 35.184327 C 408.678068 35.184327 412.412443 35.882244 415.589526 37.278077 C 418.761401 38.679119 421.214526 40.621827 422.948901 43.111411 C 424.693693 45.600994 425.568693 48.397869 425.568693 51.496828 L 425.480152 52.908286 L 411.006193 52.908286 C 411.131193 51.043703 410.568693 49.554119 409.323901 48.444744 C 408.094734 47.319744 406.323901 46.757244 404.011401 46.757244 C 402.204109 46.757244 400.724942 47.132244 399.568692 47.877036 C 398.433275 48.616619 397.860359 49.642661 397.860359 50.949953 C 397.860359 52.319744 398.620775 53.455161 400.141609 54.366619 C 401.657234 55.262453 404.037442 56.272869 407.271817 57.397869 C 410.641609 58.507245 413.433276 59.611411 415.636401 60.705161 C 417.834318 61.798911 419.730151 63.324953 421.308276 65.283286 C 422.902026 67.24162 423.698902 69.67912 423.698902 72.595787 C 423.698902 75.955162 422.688485 78.845787 420.667651 81.278079 C 418.652026 83.710371 415.875985 85.564537 412.355151 86.835371 C 408.844734 88.111412 404.849942 88.752037 400.365567 88.752037 Z M 445.443694 70.090578 C 445.386402 70.392662 445.355152 70.798912 445.355152 71.298912 C 445.355152 72.423912 445.678069 73.236412 446.334319 73.736412 C 446.985361 74.220787 448.063486 74.465579 449.568694 74.465579 L 455.24057 74.465579 L 452.829111 88.002037 L 444.714527 88.002037 C 434.250985 88.002037 429.01661 83.611412 429.01661 74.830162 C 429.01661 73.52287 429.178068 71.877037 429.495777 69.887453 L 433.230152 49.173911 L 426.875985 49.173911 L 429.219735 35.913494 L 435.558277 35.913494 L 437.787444 23.220785 L 453.761403 23.220785 L 451.527028 35.913494 L 461.964528 35.913494 L 459.641611 49.173911 L 449.183278 49.173911 Z M 456.193695 61.86662 C 457.120778 56.517661 458.948903 51.824953 461.683278 47.783286 C 464.417653 43.725994 467.714528 40.61141 471.573904 38.439535 C 475.433279 36.26766 479.511404 35.184327 483.808279 35.184327 C 487.485363 35.184327 490.563488 35.929119 493.037446 37.413494 C 495.52703 38.903077 497.33953 40.866619 498.459321 43.293702 L 499.761405 35.913494 L 515.730155 35.913494 L 506.480155 88.002037 L 490.532238 88.002037 L 491.922863 80.61662 C 489.933279 83.048912 487.412446 85.017662 484.355154 86.517662 C 481.318696 88.007246 477.959321 88.752037 474.287445 88.752037 C 470.625987 88.752037 467.375987 87.918704 464.532237 86.246829 C 461.70932 84.559329 459.511403 82.173912 457.948903 79.090579 C 456.39682 76.007245 455.625986 72.382245 455.625986 68.220787 C 455.625986 66.231203 455.813486 64.111411 456.193695 61.86662 Z M 495.204113 61.955161 C 495.386405 60.830161 495.474946 59.80412 495.474946 58.882245 C 495.474946 55.824953 494.58953 53.434328 492.808279 51.699953 C 491.047863 49.955161 488.792654 49.080161 486.042654 49.080161 C 482.870779 49.080161 479.974946 50.220786 477.360362 52.502036 C 474.750987 54.762453 473.099945 57.887453 472.417654 61.86662 C 472.235362 62.986411 472.141612 64.012453 472.141612 64.939536 C 472.141612 67.99162 473.027029 70.408287 474.787445 72.184328 C 476.563487 73.949954 478.797862 74.830162 481.485362 74.830162 C 484.662446 74.830162 487.553071 73.684329 490.167654 71.387453 C 492.782238 69.080162 494.459321 65.934328 495.204113 61.955161 Z M 495.204113 61.955161 " stroke="#ffffff" stroke-width="9.916642" stroke-opacity="1" stroke-miterlimit="4"/><g fill="#004aad" fill-opacity="1"><g transform="translate(168.42115, 358.560972)"><g><path d="M 3.15625 -24.640625 C 3.988281 -29.492188 5.789062 -33.820312 8.5625 -37.625 C 11.34375 -41.425781 14.785156 -44.390625 18.890625 -46.515625 C 23.003906 -48.640625 27.441406 -49.703125 32.203125 -49.703125 C 38.035156 -49.703125 42.757812 -48.160156 46.375 -45.078125 C 49.988281 -41.992188 52.03125 -37.796875 52.5 -32.484375 L 39.34375 -32.484375 C 38.738281 -34.484375 37.628906 -36.007812 36.015625 -37.0625 C 34.398438 -38.113281 32.425781 -38.640625 30.09375 -38.640625 C 26.40625 -38.640625 23.207031 -37.367188 20.5 -34.828125 C 17.800781 -32.285156 16.078125 -28.890625 15.328125 -24.640625 C 15.097656 -23.335938 14.984375 -22.191406 14.984375 -21.203125 C 14.984375 -17.941406 15.890625 -15.351562 17.703125 -13.4375 C 19.523438 -11.519531 22.023438 -10.5625 25.203125 -10.5625 C 27.484375 -10.5625 29.613281 -11.097656 31.59375 -12.171875 C 33.582031 -13.253906 35.253906 -14.796875 36.609375 -16.796875 L 49.765625 -16.796875 C 47.429688 -11.472656 43.90625 -7.285156 39.1875 -4.234375 C 34.476562 -1.179688 29.207031 0.34375 23.375 0.34375 C 19.175781 0.34375 15.515625 -0.46875 12.390625 -2.09375 C 9.265625 -3.726562 6.859375 -6.039062 5.171875 -9.03125 C 3.492188 -12.019531 2.65625 -15.492188 2.65625 -19.453125 C 2.65625 -21.234375 2.820312 -22.960938 3.15625 -24.640625 Z M 3.15625 -24.640625 "/></g></g></g><g fill="#004aad" fill-opacity="1"><g transform="translate(216.508249, 358.560972)"><g><path d="M 18.625 0.5625 C 15.257812 0.5625 12.269531 -0.113281 9.65625 -1.46875 C 7.039062 -2.820312 5.019531 -4.734375 3.59375 -7.203125 C 2.175781 -9.679688 1.46875 -12.550781 1.46875 -15.8125 C 1.46875 -20.25 2.515625 -24.285156 4.609375 -27.921875 C 6.710938 -31.566406 9.609375 -34.425781 13.296875 -36.5 C 16.984375 -38.582031 21.09375 -39.625 25.625 -39.625 C 28.976562 -39.625 31.972656 -38.929688 34.609375 -37.546875 C 37.242188 -36.171875 39.285156 -34.242188 40.734375 -31.765625 C 42.179688 -29.296875 42.90625 -26.429688 42.90625 -23.171875 C 42.90625 -18.691406 41.84375 -14.640625 39.71875 -11.015625 C 37.601562 -7.398438 34.6875 -4.566406 30.96875 -2.515625 C 27.257812 -0.460938 23.144531 0.5625 18.625 0.5625 Z M 20.296875 -9.734375 C 22.253906 -9.734375 24.015625 -10.328125 25.578125 -11.515625 C 27.148438 -12.703125 28.363281 -14.238281 29.21875 -16.125 C 30.082031 -18.019531 30.515625 -19.992188 30.515625 -22.046875 C 30.515625 -24.378906 29.882812 -26.175781 28.625 -27.4375 C 27.363281 -28.695312 25.78125 -29.328125 23.875 -29.328125 C 21.863281 -29.328125 20.097656 -28.734375 18.578125 -27.546875 C 17.066406 -26.359375 15.890625 -24.804688 15.046875 -22.890625 C 14.210938 -20.972656 13.796875 -18.96875 13.796875 -16.875 C 13.796875 -14.582031 14.398438 -12.816406 15.609375 -11.578125 C 16.828125 -10.347656 18.390625 -9.734375 20.296875 -9.734375 Z M 20.296875 -9.734375 "/></g></g></g><g fill="#004aad" fill-opacity="1"><g transform="translate(255.845825, 358.560972)"><g><path d="M 31.5 -39.484375 C 35.414062 -39.484375 38.492188 -38.382812 40.734375 -36.1875 C 42.972656 -34 44.09375 -30.941406 44.09375 -27.015625 C 44.09375 -25.710938 43.957031 -24.3125 43.6875 -22.8125 L 39.625 0 L 27.71875 0 L 31.5 -21.203125 C 31.632812 -22.003906 31.703125 -22.707031 31.703125 -23.3125 C 31.703125 -25.269531 31.15625 -26.785156 30.0625 -27.859375 C 28.96875 -28.929688 27.441406 -29.46875 25.484375 -29.46875 C 23.148438 -29.46875 21.1875 -28.742188 19.59375 -27.296875 C 18.007812 -25.847656 16.984375 -23.816406 16.515625 -21.203125 L 16.515625 -21.5625 L 12.734375 0 L 0.765625 0 L 7.625 -39.0625 L 19.59375 -39.0625 L 18.6875 -33.8125 C 20.226562 -35.539062 22.109375 -36.914062 24.328125 -37.9375 C 26.546875 -38.96875 28.9375 -39.484375 31.5 -39.484375 Z M 31.5 -39.484375 "/></g></g></g><g fill="#004aad" fill-opacity="1"><g transform="translate(297.773257, 358.560972)"><g><path d="M 17.015625 -13.4375 C 16.960938 -13.207031 16.9375 -12.90625 16.9375 -12.53125 C 16.9375 -11.6875 17.179688 -11.078125 17.671875 -10.703125 C 18.160156 -10.335938 18.96875 -10.15625 20.09375 -10.15625 L 24.359375 -10.15625 L 22.546875 0 L 16.453125 0 C 8.609375 0 4.6875 -3.289062 4.6875 -9.875 C 4.6875 -10.851562 4.804688 -12.085938 5.046875 -13.578125 L 7.84375 -29.125 L 3.078125 -29.125 L 4.828125 -39.0625 L 9.59375 -39.0625 L 11.265625 -48.578125 L 23.234375 -48.578125 L 21.5625 -39.0625 L 29.40625 -39.0625 L 27.65625 -29.125 L 19.8125 -29.125 Z M 17.015625 -13.4375 "/></g></g></g><g fill="#004aad" fill-opacity="1"><g transform="translate(320.941716, 358.560972)"><g><path d="M 1.890625 -19.59375 C 2.585938 -23.613281 3.960938 -27.140625 6.015625 -30.171875 C 8.066406 -33.203125 10.539062 -35.535156 13.4375 -37.171875 C 16.332031 -38.804688 19.390625 -39.625 22.609375 -39.625 C 25.359375 -39.625 27.664062 -39.0625 29.53125 -37.9375 C 31.40625 -36.820312 32.757812 -35.351562 33.59375 -33.53125 L 34.578125 -39.0625 L 46.546875 -39.0625 L 39.625 0 L 27.65625 0 L 28.703125 -5.53125 C 27.203125 -3.707031 25.304688 -2.234375 23.015625 -1.109375 C 20.734375 0.00390625 18.21875 0.5625 15.46875 0.5625 C 12.71875 0.5625 10.28125 -0.0664062 8.15625 -1.328125 C 6.03125 -2.585938 4.382812 -4.375 3.21875 -6.6875 C 2.050781 -9 1.46875 -11.71875 1.46875 -14.84375 C 1.46875 -16.332031 1.609375 -17.914062 1.890625 -19.59375 Z M 31.15625 -19.53125 C 31.289062 -20.375 31.359375 -21.144531 31.359375 -21.84375 C 31.359375 -24.125 30.691406 -25.914062 29.359375 -27.21875 C 28.035156 -28.53125 26.347656 -29.1875 24.296875 -29.1875 C 21.910156 -29.1875 19.738281 -28.332031 17.78125 -26.625 C 15.820312 -24.925781 14.582031 -22.582031 14.0625 -19.59375 C 13.925781 -18.757812 13.859375 -17.992188 13.859375 -17.296875 C 13.859375 -15.003906 14.519531 -13.191406 15.84375 -11.859375 C 17.175781 -10.535156 18.847656 -9.875 20.859375 -9.875 C 23.242188 -9.875 25.414062 -10.734375 27.375 -12.453125 C 29.332031 -14.179688 30.59375 -16.539062 31.15625 -19.53125 Z M 31.15625 -19.53125 "/></g></g></g><g fill="#004aad" fill-opacity="1"><g transform="translate(363.219131, 358.560972)"><g><path d="M 18.625 -33.53125 C 20.113281 -35.351562 22 -36.820312 24.28125 -37.9375 C 26.570312 -39.0625 29.070312 -39.625 31.78125 -39.625 C 35.976562 -39.625 39.367188 -38.257812 41.953125 -35.53125 C 44.546875 -32.800781 45.84375 -29.078125 45.84375 -24.359375 C 45.84375 -22.867188 45.707031 -21.28125 45.4375 -19.59375 C 44.726562 -15.582031 43.347656 -12.046875 41.296875 -8.984375 C 39.242188 -5.929688 36.769531 -3.578125 33.875 -1.921875 C 30.988281 -0.265625 27.929688 0.5625 24.703125 0.5625 C 21.953125 0.5625 19.644531 0.015625 17.78125 -1.078125 C 15.914062 -2.179688 14.5625 -3.640625 13.71875 -5.453125 L 12.734375 0 L 0.765625 0 L 9.9375 -51.796875 L 21.90625 -51.796875 Z M 33.3125 -19.59375 C 33.457031 -20.394531 33.53125 -21.117188 33.53125 -21.765625 C 33.53125 -24.097656 32.863281 -25.914062 31.53125 -27.21875 C 30.207031 -28.53125 28.515625 -29.1875 26.453125 -29.1875 C 24.078125 -29.1875 21.910156 -28.320312 19.953125 -26.59375 C 17.992188 -24.875 16.734375 -22.519531 16.171875 -19.53125 C 16.023438 -18.6875 15.953125 -17.914062 15.953125 -17.21875 C 15.953125 -14.9375 16.601562 -13.140625 17.90625 -11.828125 C 19.21875 -10.523438 20.898438 -9.875 22.953125 -9.875 C 25.335938 -9.875 27.519531 -10.75 29.5 -12.5 C 31.488281 -14.25 32.757812 -16.613281 33.3125 -19.59375 Z M 33.3125 -19.59375 "/></g></g></g><g fill="#004aad" fill-opacity="1"><g transform="translate(405.496557, 358.560972)"><g><path d="M 14.421875 -43.125 C 12.554688 -43.125 11.070312 -43.625 9.96875 -44.625 C 8.875 -45.625 8.328125 -46.894531 8.328125 -48.4375 C 8.328125 -50.539062 9.144531 -52.335938 10.78125 -53.828125 C 12.414062 -55.316406 14.398438 -56.0625 16.734375 -56.0625 C 18.597656 -56.0625 20.066406 -55.5625 21.140625 -54.5625 C 22.210938 -53.5625 22.75 -52.269531 22.75 -50.6875 C 22.75 -48.625 21.929688 -46.847656 20.296875 -45.359375 C 18.660156 -43.867188 16.703125 -43.125 14.421875 -43.125 Z M 19.59375 -39.0625 L 12.734375 0 L 0.765625 0 L 7.625 -39.0625 Z M 19.59375 -39.0625 "/></g></g></g><g fill="#004aad" fill-opacity="1"><g transform="translate(420.895451, 358.560972)"><g><path d="M 21.90625 -51.796875 L 12.734375 0 L 0.765625 0 L 9.9375 -51.796875 Z M 21.90625 -51.796875 "/></g></g></g><g fill="#004aad" fill-opacity="1"><g transform="translate(436.294345, 358.560972)"><g><path d="M 14.421875 -43.125 C 12.554688 -43.125 11.070312 -43.625 9.96875 -44.625 C 8.875 -45.625 8.328125 -46.894531 8.328125 -48.4375 C 8.328125 -50.539062 9.144531 -52.335938 10.78125 -53.828125 C 12.414062 -55.316406 14.398438 -56.0625 16.734375 -56.0625 C 18.597656 -56.0625 20.066406 -55.5625 21.140625 -54.5625 C 22.210938 -53.5625 22.75 -52.269531 22.75 -50.6875 C 22.75 -48.625 21.929688 -46.847656 20.296875 -45.359375 C 18.660156 -43.867188 16.703125 -43.125 14.421875 -43.125 Z M 19.59375 -39.0625 L 12.734375 0 L 0.765625 0 L 7.625 -39.0625 Z M 19.59375 -39.0625 "/></g></g></g><g fill="#004aad" fill-opacity="1"><g transform="translate(451.69324, 358.560972)"><g><path d="M 17.015625 0.5625 C 13.929688 0.5625 11.164062 0.0703125 8.71875 -0.90625 C 6.269531 -1.882812 4.34375 -3.25 2.9375 -5 C 1.539062 -6.75 0.84375 -8.769531 0.84375 -11.0625 C 0.84375 -11.382812 0.890625 -11.96875 0.984375 -12.8125 L 12.53125 -12.8125 C 12.4375 -11.363281 12.867188 -10.207031 13.828125 -9.34375 C 14.785156 -8.476562 16.148438 -8.046875 17.921875 -8.046875 C 19.410156 -8.046875 20.644531 -8.328125 21.625 -8.890625 C 22.601562 -9.453125 23.09375 -10.242188 23.09375 -11.265625 C 23.09375 -12.242188 22.566406 -13.023438 21.515625 -13.609375 C 20.472656 -14.191406 18.738281 -14.90625 16.3125 -15.75 C 13.789062 -16.59375 11.675781 -17.421875 9.96875 -18.234375 C 8.269531 -19.046875 6.8125 -20.222656 5.59375 -21.765625 C 4.382812 -23.304688 3.78125 -25.242188 3.78125 -27.578125 C 3.78125 -29.867188 4.457031 -31.9375 5.8125 -33.78125 C 7.164062 -35.625 9.066406 -37.054688 11.515625 -38.078125 C 13.960938 -39.109375 16.796875 -39.625 20.015625 -39.625 C 23.234375 -39.625 26.03125 -39.097656 28.40625 -38.046875 C 30.789062 -36.992188 32.632812 -35.535156 33.9375 -33.671875 C 35.25 -31.804688 35.90625 -29.707031 35.90625 -27.375 L 35.84375 -26.3125 L 24.984375 -26.3125 C 25.078125 -27.71875 24.65625 -28.835938 23.71875 -29.671875 C 22.789062 -30.515625 21.460938 -30.9375 19.734375 -30.9375 C 18.378906 -30.9375 17.269531 -30.65625 16.40625 -30.09375 C 15.550781 -29.539062 15.125 -28.773438 15.125 -27.796875 C 15.125 -26.765625 15.691406 -25.910156 16.828125 -25.234375 C 17.972656 -24.554688 19.757812 -23.796875 22.1875 -22.953125 C 24.707031 -22.117188 26.796875 -21.289062 28.453125 -20.46875 C 30.109375 -19.65625 31.53125 -18.515625 32.71875 -17.046875 C 33.914062 -15.578125 34.515625 -13.742188 34.515625 -11.546875 C 34.515625 -9.023438 33.753906 -6.851562 32.234375 -5.03125 C 30.710938 -3.21875 28.632812 -1.832031 26 -0.875 C 23.363281 0.0820312 20.367188 0.5625 17.015625 0.5625 Z M 17.015625 0.5625 "/></g></g></g><g fill="#004aad" fill-opacity="1"><g transform="translate(485.501123, 358.560972)"><g><path d="M 17.015625 -13.4375 C 16.960938 -13.207031 16.9375 -12.90625 16.9375 -12.53125 C 16.9375 -11.6875 17.179688 -11.078125 17.671875 -10.703125 C 18.160156 -10.335938 18.96875 -10.15625 20.09375 -10.15625 L 24.359375 -10.15625 L 22.546875 0 L 16.453125 0 C 8.609375 0 4.6875 -3.289062 4.6875 -9.875 C 4.6875 -10.851562 4.804688 -12.085938 5.046875 -13.578125 L 7.84375 -29.125 L 3.078125 -29.125 L 4.828125 -39.0625 L 9.59375 -39.0625 L 11.265625 -48.578125 L 23.234375 -48.578125 L 21.5625 -39.0625 L 29.40625 -39.0625 L 27.65625 -29.125 L 19.8125 -29.125 Z M 17.015625 -13.4375 "/></g></g></g><g fill="#004aad" fill-opacity="1"><g transform="translate(508.669594, 358.560972)"><g><path d="M 1.890625 -19.59375 C 2.585938 -23.613281 3.960938 -27.140625 6.015625 -30.171875 C 8.066406 -33.203125 10.539062 -35.535156 13.4375 -37.171875 C 16.332031 -38.804688 19.390625 -39.625 22.609375 -39.625 C 25.359375 -39.625 27.664062 -39.0625 29.53125 -37.9375 C 31.40625 -36.820312 32.757812 -35.351562 33.59375 -33.53125 L 34.578125 -39.0625 L 46.546875 -39.0625 L 39.625 0 L 27.65625 0 L 28.703125 -5.53125 C 27.203125 -3.707031 25.304688 -2.234375 23.015625 -1.109375 C 20.734375 0.00390625 18.21875 0.5625 15.46875 0.5625 C 12.71875 0.5625 10.28125 -0.0664062 8.15625 -1.328125 C 6.03125 -2.585938 4.382812 -4.375 3.21875 -6.6875 C 2.050781 -9 1.46875 -11.71875 1.46875 -14.84375 C 1.46875 -16.332031 1.609375 -17.914062 1.890625 -19.59375 Z M 31.15625 -19.53125 C 31.289062 -20.375 31.359375 -21.144531 31.359375 -21.84375 C 31.359375 -24.125 30.691406 -25.914062 29.359375 -27.21875 C 28.035156 -28.53125 26.347656 -29.1875 24.296875 -29.1875 C 21.910156 -29.1875 19.738281 -28.332031 17.78125 -26.625 C 15.820312 -24.925781 14.582031 -22.582031 14.0625 -19.59375 C 13.925781 -18.757812 13.859375 -17.992188 13.859375 -17.296875 C 13.859375 -15.003906 14.519531 -13.191406 15.84375 -11.859375 C 17.175781 -10.535156 18.847656 -9.875 20.859375 -9.875 C 23.242188 -9.875 25.414062 -10.734375 27.375 -12.453125 C 29.332031 -14.179688 30.59375 -16.539062 31.15625 -19.53125 Z M 31.15625 -19.53125 "/></g></g></g></svg>